# This file uses centimeters as units for non-parametric coordinates.

mtllib curved road.mtl
g default
v -2.022698 -0.000000 11.984765
v 2.022698 -0.000000 11.984765
v -6.472566 0.000000 -10.612533
v -3.314345 0.000000 -13.140550
v 2.022698 -0.000000 10.995526
v -2.022698 -0.000000 10.995526
v -2.697574 0.000000 -12.370024
v -5.855795 0.000000 -9.842008
v 2.022698 -0.000000 6.987327
v -2.022698 -0.000000 6.987327
v -0.078895 0.000000 -7.578768
v -3.838649 0.000000 -6.085626
v -2.081552 -0.000000 2.611947
v 1.872373 -0.000000 2.133802
v -2.667058 0.000000 -1.845368
v 1.185345 0.000000 -2.854204
vt 0.416803 0.000000
vt 0.583197 0.000000
vt 0.416803 1.000000
vt 0.583197 1.000000
vt 0.583197 0.041271
vt 0.416803 0.041271
vt 0.583197 0.958824
vt 0.416803 0.958824
vt 0.583197 0.208491
vt 0.416803 0.208491
vt 0.583197 0.792475
vt 0.416803 0.792475
vt 0.416803 0.395499
vt 0.583197 0.395499
vt 0.416803 0.603058
vt 0.583197 0.603058
vn 0.000000 1.000000 0.000000
vn 0.000000 1.000000 0.000000
vn 0.000000 1.000000 0.000000
vn 0.000000 1.000000 0.000000
vn 0.000000 1.000000 0.000000
vn 0.000000 1.000000 0.000000
vn 0.000000 1.000000 0.000000
vn 0.000000 1.000000 0.000000
vn 0.000000 1.000000 0.000000
vn 0.000000 1.000000 0.000000
vn 0.000000 1.000000 0.000000
vn 0.000000 1.000000 0.000000
vn 0.000000 1.000000 0.000000
vn 0.000000 1.000000 0.000000
vn 0.000000 1.000000 0.000000
vn 0.000000 1.000000 0.000000
s 1
g pPlane1
usemtl initialShadingGroup
f 1/1/1 2/2/2 5/5/3 6/6/4
f 6/6/4 5/5/3 9/9/5 10/10/6
f 8/8/7 7/7/8 4/4/9 3/3/10
f 15/15/11 16/16/12 11/11/13 12/12/14
f 12/12/14 11/11/13 7/7/8 8/8/7
f 10/10/6 9/9/5 14/14/15 13/13/16
f 13/13/16 14/14/15 16/16/12 15/15/11
