# This file uses centimeters as units for non-parametric coordinates.

mtllib straight road.mtl
g default
v -2.022698 -0.000000 11.984765
v 2.022698 -0.000000 11.984765
v -2.022698 0.000000 -11.984765
v 2.022698 0.000000 -11.984765
vt 0.416803 0.000000
vt 0.583197 0.000000
vt 0.416803 1.000000
vt 0.583197 1.000000
vn 0.000000 1.000000 0.000000
vn 0.000000 1.000000 0.000000
vn 0.000000 1.000000 0.000000
vn 0.000000 1.000000 0.000000
s off
g pPlane1
usemtl initialShadingGroup
f 1/1/1 2/2/2 4/4/3 3/3/4
