# This file uses centimeters as units for non-parametric coordinates.

mtllib straight road with exit.mtl
g default
v -2.022698 -0.000000 11.984765
v 2.022698 -0.000000 11.984765
v -2.022698 0.000000 -11.984765
v 2.022698 0.000000 -11.984765
v 2.022698 -0.000000 10.995526
v -2.022698 -0.000000 10.995526
v 2.022698 0.000000 -10.997792
v -2.022698 0.000000 -10.997792
v 2.022698 -0.000000 5.951292
v -2.022698 -0.000000 5.951292
v 2.022698 0.000000 -7.010498
v -2.022698 0.000000 -7.010498
v 2.677307 -0.000000 2.484330
v 3.773927 -0.000000 3.210897
v 4.215658 -0.000000 -1.296141
v 5.163102 -0.000000 -0.373933
v 7.723910 0.000000 -5.782024
v 8.648076 0.000000 -4.661709
v 10.302193 0.000000 -8.141422
v 11.226359 0.000000 -7.021107
vt 0.416803 0.000000
vt 0.583197 0.000000
vt 0.416803 1.000000
vt 0.583197 1.000000
vt 0.583197 0.041271
vt 0.416803 0.041271
vt 0.583197 0.958824
vt 0.416803 0.958824
vt 0.583197 0.208491
vt 0.416803 0.208491
vt 0.583197 0.792475
vt 0.416803 0.792475
vt 0.635091 0.502296
vt 0.663913 0.327525
vt 0.626011 0.380107
vt 0.626011 0.208631
vt 0.588742 0.209878
vt 0.588742 0.043479
vt 0.000000 0.000000
vt 1.000000 0.000000
vt 1.000000 1.000000
vt 0.000000 1.000000
vt 0.000000 0.000000
vt 1.000000 0.000000
vt 1.000000 1.000000
vt 0.000000 1.000000
vn 0.000000 1.000000 0.000000
vn 0.000000 1.000000 0.000000
vn 0.000000 1.000000 0.000000
vn 0.000000 1.000000 0.000000
vn 0.000000 1.000000 0.000000
vn 0.000000 1.000000 0.000000
vn 0.000000 1.000000 0.000000
vn 0.000000 1.000000 0.000000
vn 0.000000 1.000000 0.000000
vn 0.000000 1.000000 0.000000
vn 0.000000 1.000000 0.000000
vn 0.000000 1.000000 0.000000
vn 0.000000 1.000000 0.000000
vn 0.000000 1.000000 0.000000
vn -0.000000 1.000000 0.000000
vn -0.000000 1.000000 0.000000
vn -0.000000 1.000000 0.000000
vn -0.000000 1.000000 0.000000
vn -0.000000 1.000000 0.000000
vn -0.000000 1.000000 0.000000
s 1
g pPlane1
usemtl initialShadingGroup
f 1/1/1 2/2/2 5/5/3 6/6/4
f 6/6/4 5/5/3 9/9/5 10/10/6
f 8/8/7 7/7/8 4/4/9 3/3/10
f 10/10/6 9/9/5 11/11/11 12/12/12
f 12/12/12 11/11/11 7/7/8 8/8/7
f 9/17/5 5/18/3 14/16/13 13/15/14
f 13/15/14 14/16/13 16/14/15 15/13/16
f 15/19/16 16/20/15 18/21/17 17/22/18
f 17/23/18 18/24/17 20/25/19 19/26/20
